<svg width="26" height="26" viewBox="0 0 26 26" fill="none" xmlns="http://www.w3.org/2000/svg">
<rect width="26" height="26" rx="3.97647" fill="url(#paint0_linear_18_35)"/>
<path d="M12.9996 3.82355C13.2154 6.90049 13.4333 9.9665 13.898 11.633C14.1209 11.64 14.336 11.6577 14.5406 11.6898C14.853 10.3686 15.0934 8.10338 15.3159 5.59769C15.6147 8.25379 15.9106 11.0553 16.2472 12.0121C16.4505 12.0803 16.6415 12.1537 16.8107 12.236C17.1979 11.2036 17.3739 9.75607 17.6912 7.71042L18.2 13.2722C14.9367 14.5913 13.3227 17.6883 13 22.1765C12.6769 17.6883 11.0633 14.5913 7.8 13.2722L8.30841 7.71042C8.62576 9.75572 8.80215 11.2036 9.18891 12.236C9.35814 12.1534 9.54884 12.0803 9.75242 12.0121C10.0891 11.0553 10.3846 8.25379 10.6837 5.59769C10.9063 8.10338 11.1467 10.3683 11.459 11.6898C11.6637 11.658 11.8787 11.64 12.1016 11.633C12.5664 9.9665 12.7843 6.90049 13 3.82355H12.9996Z" fill="#EAEAEA"/>
<defs>
<linearGradient id="paint0_linear_18_35" x1="13" y1="0" x2="13" y2="26" gradientUnits="userSpaceOnUse">
<stop stop-color="#FC48A2"/>
<stop offset="1" stop-color="#6B3483"/>
</linearGradient>
</defs>
</svg>
