<svg width="68" height="120" viewBox="0 0 68 120" fill="none" xmlns="http://www.w3.org/2000/svg">
<path d="M33.9977 0C35.4083 20.1185 36.8329 40.1654 39.8717 51.0615C41.3292 51.1077 42.7351 51.2231 44.0732 51.4332C46.1155 42.7948 47.6875 27.9835 49.1426 11.6002C51.0959 28.9669 53.0306 47.2848 55.2319 53.5408C56.5606 53.9864 57.8098 54.4665 58.9163 55.0044C61.4475 48.2544 62.5985 38.7896 64.6735 25.4142L68 61.7798C46.6629 70.4044 36.1101 90.6545 34 120C31.8876 90.6545 21.3371 70.4044 0 61.7798L3.32421 25.4142C5.3992 38.7873 6.5525 48.2544 9.08133 55.0044C10.1878 54.4642 11.4347 53.9864 12.7658 53.5408C14.9671 47.2848 16.8994 28.9669 18.8551 11.6002C20.3102 27.9835 21.8822 42.7925 23.9245 51.4332C25.2626 51.2254 26.6685 51.1077 28.1259 51.0615C31.1647 40.1654 32.5894 20.1185 34 0H33.9977Z" fill="#EAEAEA"/>
</svg>
