<svg width="310" height="547" viewBox="0 0 310 547" fill="none" xmlns="http://www.w3.org/2000/svg">
<path d="M154.989 0C161.42 91.7068 167.915 183.087 181.768 232.755C188.412 232.966 194.822 233.492 200.922 234.45C210.232 195.073 217.399 127.558 224.032 52.8774C232.937 132.041 241.757 215.54 251.792 244.057C257.85 246.088 263.545 248.277 268.589 250.729C280.128 219.96 285.375 176.816 294.835 115.846L310 281.613C212.728 320.927 164.62 413.233 155 547C145.37 413.233 97.2723 320.927 0 281.613L15.1545 115.846C24.614 176.805 29.8717 219.96 41.4002 250.729C46.4445 248.266 52.1288 246.088 58.197 244.057C68.2324 215.54 77.0414 132.041 85.9571 52.8774C92.5905 127.558 99.7571 195.062 109.067 234.45C115.168 233.503 121.577 232.966 128.221 232.755C142.074 183.087 148.569 91.7068 155 0H154.989Z" fill="white"/>
</svg>
